<svg width="100pt" height="100pt" viewBox="0 0 100 100" xmlns="http://www.w3.org/2000/svg"><path d="M37.918 41.875l3.75 2.707 2.918-2.918-2.707-3.75c.625-1.043 1.25-2.5 1.457-3.75l4.582-.832v-4.168l-4.582-.832c-.418-1.25-.832-2.707-1.457-3.75l2.707-3.75-2.918-2.918-3.75 2.707c-1.043-.625-2.5-1.25-3.75-1.457l-.836-4.582h-4.168l-.832 4.582c-1.25.418-2.707.832-3.75 1.457l-3.75-2.707-2.918 2.918 2.707 3.75c-.625 1.043-1.25 2.5-1.457 3.75l-4.582.836v4.168l4.582.832c.418 1.25.832 2.707 1.457 3.75l-2.707 3.75 2.918 2.918 3.75-2.707c1.043.625 2.5 1.25 3.75 1.457l.836 4.582h4.168l.832-4.582c1.25-.211 2.5-.836 3.75-1.461zM25 31.25c0-3.543 2.707-6.25 6.25-6.25s6.25 2.707 6.25 6.25-2.707 6.25-6.25 6.25S25 34.793 25 31.25zm48.332 37.707l7.5 2.082 2.293-5.832-6.457-3.543c.207-1.457.418-3.125.207-4.582l6.25-3.543-2.5-5.832-6.25 1.668c-1.043-1.668-2.293-2.918-3.543-3.957l1.668-6.043-5.832-2.293-2.918 5c-1.875-.418-3.957-.418-6.043-.207l-2.918-5-5.621 2.707L50.625 45c-1.668 1.25-3.125 2.707-4.168 4.375l-5.625-1.457-2.293 5.832 5.418 3.125c-.207 1.875 0 3.543.207 5.418l-5.625 3.332 2.5 5.832 6.875-1.875c1.043 1.25 2.082 2.293 3.543 3.125l-1.875 7.082 5.832 2.293 3.75-6.668c1.25.207 2.707 0 3.957-.207l3.957 6.875 5.832-2.5-2.082-7.5c.629-1.04 1.672-2.082 2.504-3.125zm-21.25-10.625c0-4.582 3.75-8.332 8.332-8.332 4.582 0 8.332 3.75 8.332 8.332s-3.75 8.332-8.332 8.332c-4.582.004-8.332-3.746-8.332-8.332z"/></svg>