<svg width="100pt" height="100pt" viewBox="0 0 100 100" xmlns="http://www.w3.org/2000/svg"><path d="M58.957 72.5c-.625.207-1.457.207-2.082.418.625-.211 1.457-.418 2.082-.418zM76.25 56.25c-.207.832-.418 1.457-.625 2.082.207-.625.418-1.457.625-2.082zm-.832 2.293c-.418.832-.832 1.668-1.25 2.5.414-.625.832-1.46 1.25-2.5zm1.457-5c0 .625-.207 1.25-.418 1.875.211-.625.211-1.25.418-1.875zM77.082 50c0 .832 0 1.875-.207 2.707.207-.832.207-1.875.207-2.707zM56.668 72.707c-.836.21-1.668.21-2.5.21.832 0 1.664 0 2.5-.21zm19.789-17.289c0 .207-.207.418-.207.625 0-.21 0-.418.207-.625zm.418-2.711c0 .207 0 .418-.207.832.207-.414.207-.621.207-.832zM59.168 72.293c-.21 0-.21.207 0 0-.21.207-.21 0 0 0zm16.25-13.961c0 .207 0 .207-.207.418.207-.207.207-.418.207-.418zm-18.75 14.375h.207-.207z"/><path d="M71.668 64.793C65 56.875 55.625 48.125 48.961 42.086c-.418-.418-.625-.832-.625-1.457 0-1.25.832-2.082 2.082-2.082.418 0 1.043.207 1.457.418h.207c9.375 8.543 16.875 15.832 22.293 22.082.418-.832.832-1.668 1.25-2.5 0 0 0-.207.207-.418.207-.625.418-1.457.625-2.082 0-.207.207-.418.207-.625.207-.625.207-1.25.418-1.875 0-.207 0-.418.207-.832-.207-.84-.207-1.883-.207-2.715 0-16.25-17.082-24.793-33.332-25-14.793-.207-22.918-4.168-22.918-4.168s2.082 21.25 6.457 33.125C32.293 67.5 41.457 72.918 54.17 72.918c.831 0 1.667 0 2.5-.207h.206c.625 0 1.457-.207 2.082-.418h.207c1.457-.418 2.918-.832 4.375-1.457 1.25-.625 2.5-1.25 3.75-2.082 4.168 4.793 6.875 8.543 6.875 10.207h6.25c-.207-3.129-3.746-8.543-8.746-14.168z"/></svg>